<mxfile host="app.diagrams.net" agent="Mozilla/5.0 (Windows NT 10.0; Win64; x64) AppleWebKit/537.36 (KHTML, like Gecko) Chrome/129.0.0.0 Safari/537.36" version="24.7.17">
  <diagram name="Страница — 1" id="2gytokV5b-rVUzI0W6c4">
    <mxGraphModel grid="1" page="1" gridSize="10" guides="1" tooltips="1" connect="1" arrows="1" fold="1" pageScale="1" pageWidth="827" pageHeight="1169" math="0" shadow="0">
      <root>
        <mxCell id="0" />
        <mxCell id="1" parent="0" />
        <mxCell id="pwe0ns4rHspd8RC1gSeA-3" style="edgeStyle=orthogonalEdgeStyle;rounded=0;orthogonalLoop=1;jettySize=auto;html=1;exitX=0.5;exitY=1;exitDx=0;exitDy=0;" edge="1" parent="1" target="pwe0ns4rHspd8RC1gSeA-2">
          <mxGeometry relative="1" as="geometry">
            <mxPoint x="390" y="90" as="sourcePoint" />
          </mxGeometry>
        </mxCell>
        <mxCell id="pwe0ns4rHspd8RC1gSeA-12" style="edgeStyle=orthogonalEdgeStyle;rounded=0;orthogonalLoop=1;jettySize=auto;html=1;exitX=0;exitY=0.5;exitDx=0;exitDy=0;entryX=0.5;entryY=0;entryDx=0;entryDy=0;" edge="1" parent="1" source="pwe0ns4rHspd8RC1gSeA-2" target="pwe0ns4rHspd8RC1gSeA-4">
          <mxGeometry relative="1" as="geometry" />
        </mxCell>
        <mxCell id="pwe0ns4rHspd8RC1gSeA-38" style="edgeStyle=orthogonalEdgeStyle;rounded=0;orthogonalLoop=1;jettySize=auto;html=1;exitX=1;exitY=0.5;exitDx=0;exitDy=0;entryX=0.5;entryY=0;entryDx=0;entryDy=0;" edge="1" parent="1" source="pwe0ns4rHspd8RC1gSeA-2" target="pwe0ns4rHspd8RC1gSeA-5">
          <mxGeometry relative="1" as="geometry" />
        </mxCell>
        <mxCell id="pwe0ns4rHspd8RC1gSeA-2" value="Проверка типа кампании (экз, поисковик...)" style="rounded=0;whiteSpace=wrap;html=1;" vertex="1" parent="1">
          <mxGeometry x="330" y="130" width="120" height="60" as="geometry" />
        </mxCell>
        <mxCell id="pwe0ns4rHspd8RC1gSeA-13" style="edgeStyle=orthogonalEdgeStyle;rounded=0;orthogonalLoop=1;jettySize=auto;html=1;exitX=0.5;exitY=1;exitDx=0;exitDy=0;entryX=0.5;entryY=0;entryDx=0;entryDy=0;" edge="1" parent="1" source="pwe0ns4rHspd8RC1gSeA-4" target="pwe0ns4rHspd8RC1gSeA-6">
          <mxGeometry relative="1" as="geometry" />
        </mxCell>
        <mxCell id="pwe0ns4rHspd8RC1gSeA-4" value="Асин/экзакт" style="rounded=0;whiteSpace=wrap;html=1;" vertex="1" parent="1">
          <mxGeometry x="160" y="210" width="120" height="60" as="geometry" />
        </mxCell>
        <mxCell id="pwe0ns4rHspd8RC1gSeA-40" style="edgeStyle=orthogonalEdgeStyle;rounded=0;orthogonalLoop=1;jettySize=auto;html=1;exitX=0.5;exitY=1;exitDx=0;exitDy=0;entryX=0.5;entryY=0;entryDx=0;entryDy=0;" edge="1" parent="1" source="pwe0ns4rHspd8RC1gSeA-5">
          <mxGeometry relative="1" as="geometry">
            <mxPoint x="710" y="310" as="targetPoint" />
          </mxGeometry>
        </mxCell>
        <mxCell id="pwe0ns4rHspd8RC1gSeA-5" value="Поисковик" style="rounded=0;whiteSpace=wrap;html=1;" vertex="1" parent="1">
          <mxGeometry x="650" y="210" width="120" height="60" as="geometry" />
        </mxCell>
        <mxCell id="pwe0ns4rHspd8RC1gSeA-14" style="edgeStyle=orthogonalEdgeStyle;rounded=0;orthogonalLoop=1;jettySize=auto;html=1;exitX=0.5;exitY=1;exitDx=0;exitDy=0;" edge="1" parent="1" source="pwe0ns4rHspd8RC1gSeA-6" target="pwe0ns4rHspd8RC1gSeA-7">
          <mxGeometry relative="1" as="geometry" />
        </mxCell>
        <mxCell id="pwe0ns4rHspd8RC1gSeA-6" value="Просмотр настройки плейсментов" style="rounded=0;whiteSpace=wrap;html=1;" vertex="1" parent="1">
          <mxGeometry x="160" y="310" width="120" height="60" as="geometry" />
        </mxCell>
        <mxCell id="pwe0ns4rHspd8RC1gSeA-15" style="edgeStyle=orthogonalEdgeStyle;rounded=0;orthogonalLoop=1;jettySize=auto;html=1;exitX=0.5;exitY=1;exitDx=0;exitDy=0;" edge="1" parent="1" source="pwe0ns4rHspd8RC1gSeA-7" target="pwe0ns4rHspd8RC1gSeA-8">
          <mxGeometry relative="1" as="geometry" />
        </mxCell>
        <mxCell id="pwe0ns4rHspd8RC1gSeA-7" value="Просмотр трафика за 7 дней и 30 дней" style="rounded=0;whiteSpace=wrap;html=1;" vertex="1" parent="1">
          <mxGeometry x="160" y="410" width="120" height="60" as="geometry" />
        </mxCell>
        <mxCell id="pwe0ns4rHspd8RC1gSeA-42" style="edgeStyle=orthogonalEdgeStyle;rounded=0;orthogonalLoop=1;jettySize=auto;html=1;exitX=0.5;exitY=1;exitDx=0;exitDy=0;entryX=0.5;entryY=0;entryDx=0;entryDy=0;" edge="1" parent="1" source="pwe0ns4rHspd8RC1gSeA-8" target="pwe0ns4rHspd8RC1gSeA-32">
          <mxGeometry relative="1" as="geometry" />
        </mxCell>
        <mxCell id="pwe0ns4rHspd8RC1gSeA-8" value="Просмотр истории бидов и аджастментов" style="rounded=0;whiteSpace=wrap;html=1;" vertex="1" parent="1">
          <mxGeometry x="160" y="500" width="120" height="60" as="geometry" />
        </mxCell>
        <mxCell id="pwe0ns4rHspd8RC1gSeA-23" style="edgeStyle=orthogonalEdgeStyle;rounded=0;orthogonalLoop=1;jettySize=auto;html=1;exitX=0;exitY=0.5;exitDx=0;exitDy=0;entryX=0.5;entryY=0;entryDx=0;entryDy=0;" edge="1" parent="1" source="pwe0ns4rHspd8RC1gSeA-19" target="pwe0ns4rHspd8RC1gSeA-22">
          <mxGeometry relative="1" as="geometry" />
        </mxCell>
        <mxCell id="pwe0ns4rHspd8RC1gSeA-25" style="edgeStyle=orthogonalEdgeStyle;rounded=0;orthogonalLoop=1;jettySize=auto;html=1;exitX=1;exitY=0.5;exitDx=0;exitDy=0;" edge="1" parent="1" source="pwe0ns4rHspd8RC1gSeA-19" target="pwe0ns4rHspd8RC1gSeA-24">
          <mxGeometry relative="1" as="geometry" />
        </mxCell>
        <mxCell id="pwe0ns4rHspd8RC1gSeA-19" value="В зависимости от текущего бида будет зависеть шаг повышения" style="rounded=0;whiteSpace=wrap;html=1;" vertex="1" parent="1">
          <mxGeometry x="280" y="690" width="120" height="60" as="geometry" />
        </mxCell>
        <mxCell id="pwe0ns4rHspd8RC1gSeA-28" style="edgeStyle=orthogonalEdgeStyle;rounded=0;orthogonalLoop=1;jettySize=auto;html=1;exitX=0.5;exitY=1;exitDx=0;exitDy=0;entryX=0;entryY=0;entryDx=0;entryDy=0;" edge="1" parent="1" source="pwe0ns4rHspd8RC1gSeA-22" target="pwe0ns4rHspd8RC1gSeA-26">
          <mxGeometry relative="1" as="geometry" />
        </mxCell>
        <mxCell id="pwe0ns4rHspd8RC1gSeA-22" value="Бид выше таргетируемого - повышение на 0.05 макс" style="rounded=0;whiteSpace=wrap;html=1;" vertex="1" parent="1">
          <mxGeometry x="160" y="780" width="120" height="60" as="geometry" />
        </mxCell>
        <mxCell id="pwe0ns4rHspd8RC1gSeA-29" style="edgeStyle=orthogonalEdgeStyle;rounded=0;orthogonalLoop=1;jettySize=auto;html=1;exitX=0.5;exitY=1;exitDx=0;exitDy=0;entryX=0.5;entryY=0;entryDx=0;entryDy=0;" edge="1" parent="1" source="pwe0ns4rHspd8RC1gSeA-24" target="pwe0ns4rHspd8RC1gSeA-26">
          <mxGeometry relative="1" as="geometry" />
        </mxCell>
        <mxCell id="pwe0ns4rHspd8RC1gSeA-24" value="Бид ниже таргетируемого - повышение до таргетируемого бида" style="rounded=0;whiteSpace=wrap;html=1;" vertex="1" parent="1">
          <mxGeometry x="410" y="780" width="120" height="60" as="geometry" />
        </mxCell>
        <mxCell id="pwe0ns4rHspd8RC1gSeA-26" value="Нажатие кнопки оптимизации в проге по кампании" style="ellipse;whiteSpace=wrap;html=1;" vertex="1" parent="1">
          <mxGeometry x="530" y="970" width="120" height="80" as="geometry" />
        </mxCell>
        <mxCell id="pwe0ns4rHspd8RC1gSeA-30" value="Копирование назв кампании и поиск ее в кабинете" style="ellipse;whiteSpace=wrap;html=1;" vertex="1" parent="1">
          <mxGeometry x="330" y="10" width="120" height="80" as="geometry" />
        </mxCell>
        <mxCell id="pwe0ns4rHspd8RC1gSeA-33" style="edgeStyle=orthogonalEdgeStyle;rounded=0;orthogonalLoop=1;jettySize=auto;html=1;exitX=0;exitY=0.5;exitDx=0;exitDy=0;entryX=0;entryY=0.5;entryDx=0;entryDy=0;" edge="1" parent="1" source="pwe0ns4rHspd8RC1gSeA-32" target="pwe0ns4rHspd8RC1gSeA-26">
          <mxGeometry relative="1" as="geometry" />
        </mxCell>
        <mxCell id="pwe0ns4rHspd8RC1gSeA-37" style="edgeStyle=orthogonalEdgeStyle;rounded=0;orthogonalLoop=1;jettySize=auto;html=1;exitX=1;exitY=0.5;exitDx=0;exitDy=0;entryX=0.5;entryY=0;entryDx=0;entryDy=0;" edge="1" parent="1" source="pwe0ns4rHspd8RC1gSeA-32" target="pwe0ns4rHspd8RC1gSeA-19">
          <mxGeometry relative="1" as="geometry" />
        </mxCell>
        <mxCell id="pwe0ns4rHspd8RC1gSeA-32" value="Вчера была корректировка?" style="rounded=0;whiteSpace=wrap;html=1;" vertex="1" parent="1">
          <mxGeometry x="160" y="590" width="120" height="60" as="geometry" />
        </mxCell>
        <mxCell id="pwe0ns4rHspd8RC1gSeA-34" value="Да" style="text;html=1;align=center;verticalAlign=middle;whiteSpace=wrap;rounded=0;" vertex="1" parent="1">
          <mxGeometry x="110" y="590" width="60" height="30" as="geometry" />
        </mxCell>
        <mxCell id="pwe0ns4rHspd8RC1gSeA-35" value="Нет" style="text;html=1;align=center;verticalAlign=middle;whiteSpace=wrap;rounded=0;" vertex="1" parent="1">
          <mxGeometry x="270" y="590" width="60" height="30" as="geometry" />
        </mxCell>
        <mxCell id="pwe0ns4rHspd8RC1gSeA-60" style="edgeStyle=orthogonalEdgeStyle;rounded=0;orthogonalLoop=1;jettySize=auto;html=1;exitX=0.5;exitY=1;exitDx=0;exitDy=0;entryX=0.5;entryY=0;entryDx=0;entryDy=0;" edge="1" parent="1" source="pwe0ns4rHspd8RC1gSeA-41" target="pwe0ns4rHspd8RC1gSeA-43">
          <mxGeometry relative="1" as="geometry" />
        </mxCell>
        <mxCell id="pwe0ns4rHspd8RC1gSeA-41" value="Просмотр истории бидов" style="rounded=0;whiteSpace=wrap;html=1;" vertex="1" parent="1">
          <mxGeometry x="650" y="310" width="120" height="60" as="geometry" />
        </mxCell>
        <mxCell id="pwe0ns4rHspd8RC1gSeA-44" style="edgeStyle=orthogonalEdgeStyle;rounded=0;orthogonalLoop=1;jettySize=auto;html=1;exitX=0;exitY=0.5;exitDx=0;exitDy=0;entryX=1;entryY=0.5;entryDx=0;entryDy=0;" edge="1" parent="1" source="pwe0ns4rHspd8RC1gSeA-43" target="pwe0ns4rHspd8RC1gSeA-26">
          <mxGeometry relative="1" as="geometry" />
        </mxCell>
        <mxCell id="pwe0ns4rHspd8RC1gSeA-54" style="edgeStyle=orthogonalEdgeStyle;rounded=0;orthogonalLoop=1;jettySize=auto;html=1;exitX=1;exitY=0.5;exitDx=0;exitDy=0;entryX=0.5;entryY=0;entryDx=0;entryDy=0;" edge="1" parent="1" source="pwe0ns4rHspd8RC1gSeA-43" target="pwe0ns4rHspd8RC1gSeA-47">
          <mxGeometry relative="1" as="geometry" />
        </mxCell>
        <mxCell id="pwe0ns4rHspd8RC1gSeA-43" value="Вчера была корректировка?" style="rounded=0;whiteSpace=wrap;html=1;" vertex="1" parent="1">
          <mxGeometry x="650" y="400" width="120" height="60" as="geometry" />
        </mxCell>
        <mxCell id="pwe0ns4rHspd8RC1gSeA-45" value="Да" style="text;html=1;align=center;verticalAlign=middle;whiteSpace=wrap;rounded=0;" vertex="1" parent="1">
          <mxGeometry x="600" y="400" width="60" height="30" as="geometry" />
        </mxCell>
        <mxCell id="pwe0ns4rHspd8RC1gSeA-46" value="Нет" style="text;html=1;align=center;verticalAlign=middle;whiteSpace=wrap;rounded=0;" vertex="1" parent="1">
          <mxGeometry x="760" y="400" width="60" height="30" as="geometry" />
        </mxCell>
        <mxCell id="pwe0ns4rHspd8RC1gSeA-53" style="edgeStyle=orthogonalEdgeStyle;rounded=0;orthogonalLoop=1;jettySize=auto;html=1;exitX=0.5;exitY=1;exitDx=0;exitDy=0;entryX=0.5;entryY=0;entryDx=0;entryDy=0;" edge="1" parent="1" source="pwe0ns4rHspd8RC1gSeA-47" target="pwe0ns4rHspd8RC1gSeA-48">
          <mxGeometry relative="1" as="geometry" />
        </mxCell>
        <mxCell id="pwe0ns4rHspd8RC1gSeA-47" value="Просмотр трафика за 7 дней и 30 дней для сравнения с текущим" style="rounded=0;whiteSpace=wrap;html=1;" vertex="1" parent="1">
          <mxGeometry x="800" y="490" width="120" height="60" as="geometry" />
        </mxCell>
        <mxCell id="pwe0ns4rHspd8RC1gSeA-51" style="edgeStyle=orthogonalEdgeStyle;rounded=0;orthogonalLoop=1;jettySize=auto;html=1;exitX=0;exitY=0.5;exitDx=0;exitDy=0;" edge="1" parent="1" source="pwe0ns4rHspd8RC1gSeA-48" target="pwe0ns4rHspd8RC1gSeA-49">
          <mxGeometry relative="1" as="geometry" />
        </mxCell>
        <mxCell id="pwe0ns4rHspd8RC1gSeA-48" value="Есть падение трафика?" style="rounded=0;whiteSpace=wrap;html=1;" vertex="1" parent="1">
          <mxGeometry x="800" y="590" width="120" height="60" as="geometry" />
        </mxCell>
        <mxCell id="pwe0ns4rHspd8RC1gSeA-57" style="edgeStyle=orthogonalEdgeStyle;rounded=0;orthogonalLoop=1;jettySize=auto;html=1;exitX=0.5;exitY=1;exitDx=0;exitDy=0;entryX=1;entryY=0.5;entryDx=0;entryDy=0;" edge="1" parent="1" source="pwe0ns4rHspd8RC1gSeA-49" target="pwe0ns4rHspd8RC1gSeA-26">
          <mxGeometry relative="1" as="geometry" />
        </mxCell>
        <mxCell id="pwe0ns4rHspd8RC1gSeA-49" value="Повышение на 0.05" style="rounded=0;whiteSpace=wrap;html=1;" vertex="1" parent="1">
          <mxGeometry x="680" y="690" width="120" height="60" as="geometry" />
        </mxCell>
        <mxCell id="pwe0ns4rHspd8RC1gSeA-59" style="edgeStyle=orthogonalEdgeStyle;rounded=0;orthogonalLoop=1;jettySize=auto;html=1;exitX=0.5;exitY=1;exitDx=0;exitDy=0;entryX=1;entryY=0.5;entryDx=0;entryDy=0;" edge="1" parent="1" source="pwe0ns4rHspd8RC1gSeA-50" target="pwe0ns4rHspd8RC1gSeA-26">
          <mxGeometry relative="1" as="geometry" />
        </mxCell>
        <mxCell id="pwe0ns4rHspd8RC1gSeA-50" value="Повышение на 0.1 и больше, в зависимости от падения" style="rounded=0;whiteSpace=wrap;html=1;" vertex="1" parent="1">
          <mxGeometry x="920" y="690" width="120" height="60" as="geometry" />
        </mxCell>
        <mxCell id="pwe0ns4rHspd8RC1gSeA-52" style="edgeStyle=orthogonalEdgeStyle;rounded=0;orthogonalLoop=1;jettySize=auto;html=1;exitX=1;exitY=0.5;exitDx=0;exitDy=0;entryX=0.558;entryY=-0.017;entryDx=0;entryDy=0;entryPerimeter=0;" edge="1" parent="1" source="pwe0ns4rHspd8RC1gSeA-48" target="pwe0ns4rHspd8RC1gSeA-50">
          <mxGeometry relative="1" as="geometry" />
        </mxCell>
        <mxCell id="pwe0ns4rHspd8RC1gSeA-55" value="Да" style="text;html=1;align=center;verticalAlign=middle;whiteSpace=wrap;rounded=0;" vertex="1" parent="1">
          <mxGeometry x="900" y="585" width="60" height="30" as="geometry" />
        </mxCell>
        <mxCell id="pwe0ns4rHspd8RC1gSeA-56" value="Нет" style="text;html=1;align=center;verticalAlign=middle;whiteSpace=wrap;rounded=0;" vertex="1" parent="1">
          <mxGeometry x="750" y="590" width="60" height="30" as="geometry" />
        </mxCell>
      </root>
    </mxGraphModel>
  </diagram>
</mxfile>
